<?xml version="1.0" encoding="utf-8"?>
<!-- Generator: Adobe Illustrator 18.1.1, SVG Export Plug-In . SVG Version: 6.00 Build 0)  -->
<svg version="1.1" id="Layer_1" xmlns="http://www.w3.org/2000/svg" xmlns:xlink="http://www.w3.org/1999/xlink" x="0px" y="0px"
	 viewBox="0 0 147.2 31.8" enable-background="new 0 0 147.2 31.8" xml:space="preserve">
<g>
	<path fill="#48d5b5" d="M141.6,18.4c-0.1-2.1-1.4-4.1-4.7-4.1c-2.9,0-4.5,2.2-4.7,4.1H141.6z M146.9,25.2c-1.1,3.6-4.4,6.6-9.5,6.6
		c-5.7,0-10.8-4.1-10.8-11.1c0-6.6,4.9-11,10.2-11c6.4,0,10.3,4.1,10.3,10.8c0,0.8-0.1,1.7-0.1,1.7h-14.9c0.1,2.8,2.5,4.7,5.2,4.7
		c2.6,0,4.1-1.3,4.7-3.2L146.9,25.2z M110.6,19.2c0-2.4,1.4-4.3,3.9-4.3c2.7,0,3.9,1.8,3.9,4.1v12.1h5.6V18c0-4.6-2.4-8.3-7.5-8.3
		c-2.2,0-4.7,1-6,3.1v-2.6H105v20.8h5.6V19.2z M95.9,10.3h5.6v20.8h-5.6V10.3z M98.7,0c1.9,0,3.5,1.6,3.5,3.5c0,1.9-1.5,3.4-3.5,3.4
		c-1.9,0-3.5-1.6-3.5-3.4C95.2,1.6,96.8,0,98.7,0 M67.4,19.2c0-2.4,1.4-4.3,3.9-4.3c2.7,0,3.9,1.8,3.9,4.1v12.1h5.6V18
		c0-4.6-2.4-8.3-7.5-8.3c-2.2,0-4.7,1-6,3.1v-2.6h-5.5v20.8h5.6V19.2z M52.5,10.3h5.6v20.8h-5.6V10.3z M55.2,0
		c1.9,0,3.5,1.6,3.5,3.5c0,1.9-1.5,3.4-3.5,3.4c-1.9,0-3.5-1.6-3.5-3.4C51.8,1.6,53.3,0,55.2,0 M39.2,27.6c-1.8,0-2.7-1.2-2.7-2.4
		c0-1.6,1.1-2.4,2.6-2.6l4.7-0.7v0.9C43.8,26.4,41.6,27.6,39.2,27.6 M30.9,25.5c0,3.3,2.7,6.3,7.2,6.3c3.1,0,5.1-1.4,6.1-3.1
		c0,0.8,0.1,1.9,0.2,2.5h5.2c-0.1-0.7-0.3-2.2-0.3-3.3V17.6c0-4.2-2.5-7.9-9.1-7.9c-5.6,0-8.6,3.6-8.9,6.9l5,1.1
		c0.2-1.8,1.5-3.4,4-3.4c2.4,0,3.5,1.2,3.5,2.7c0,0.7-0.4,1.3-1.6,1.5l-5.1,0.8C33.6,19.7,30.9,21.8,30.9,25.5 M29.2,15.9
		c-0.6-0.1-1.2-0.2-1.7-0.2c-2.9,0-5.4,1.4-5.4,5.9v9.5h-5.6V10.3h5.5v3.1c1.3-2.8,4.1-3.3,5.9-3.3c0.5,0,0.9,0,1.3,0.1V15.9z
		 M13.4,10.6v4.9H6.9c0.6-0.3,1.1-0.8,1.6-1.2c1-1,1.7-2.2,2.2-3.7H13.4z M1.6,15.5H0v-4.9h9.1c-0.6,1.5-1.5,2.7-2.8,3.6
		C5.1,15,3.5,15.4,1.6,15.5 M11.7,26.5c0.7,0,1.4-0.1,1.7-0.2V31c-0.5,0.2-1.5,0.5-3.1,0.5c-4,0-6.5-2.4-6.5-6.4v-8.3h5.5v7.4
		C9.3,25.9,10.1,26.5,11.7,26.5 M9.3,9.3V4.4h-5v2.9c0,0.8-0.2,1.5-0.6,2H9.3z M92.8,26.5c-0.3,0-0.6,0-1,0c-1.6,0-2.4-0.6-2.4-2.4
		V0.9h-5.5v24.2c0,4,2.5,6.4,6.5,6.4c1,0,1.8-0.1,2.4-0.3V26.5z"/>
</g>
</svg>
